<mxfile host="app.diagrams.net" modified="2022-11-13T16:05:06.950Z" agent="5.0 (Windows)" etag="mirwz42vwsDN1nxg9AJq" version="20.5.3" type="github">
  <diagram id="Vkol3Xqrpf9xBEXjYmv2" name="Page-1">
    <mxGraphModel dx="920" dy="1630" grid="1" gridSize="10" guides="1" tooltips="1" connect="1" arrows="1" fold="1" page="1" pageScale="1" pageWidth="827" pageHeight="1169" math="0" shadow="0">
      <root>
        <mxCell id="0" />
        <mxCell id="1" parent="0" />
        <mxCell id="cHGZgE5Mo0JHlfNWTbsY-26" value="&lt;div&gt;loop&lt;/div&gt;" style="shape=umlFrame;whiteSpace=wrap;html=1;fillColor=#e1d5e7;strokeColor=#9673a6;" vertex="1" parent="1">
          <mxGeometry x="240" y="100" width="550" height="130" as="geometry" />
        </mxCell>
        <mxCell id="cHGZgE5Mo0JHlfNWTbsY-2" value="" style="shape=umlLifeline;participant=umlActor;perimeter=lifelinePerimeter;whiteSpace=wrap;html=1;container=1;collapsible=0;recursiveResize=0;verticalAlign=top;spacingTop=36;outlineConnect=0;" vertex="1" parent="1">
          <mxGeometry x="27" y="-60" width="20" height="440" as="geometry" />
        </mxCell>
        <mxCell id="cHGZgE5Mo0JHlfNWTbsY-3" value="conversation: Conversation" style="shape=umlLifeline;perimeter=lifelinePerimeter;whiteSpace=wrap;html=1;container=1;collapsible=0;recursiveResize=0;outlineConnect=0;fillColor=#dae8fc;strokeColor=#6c8ebf;" vertex="1" parent="1">
          <mxGeometry x="150" y="-70" width="100" height="450" as="geometry" />
        </mxCell>
        <mxCell id="cHGZgE5Mo0JHlfNWTbsY-4" value=": ControlMessage" style="shape=umlLifeline;perimeter=lifelinePerimeter;whiteSpace=wrap;html=1;container=1;collapsible=0;recursiveResize=0;outlineConnect=0;fillColor=#dae8fc;strokeColor=#6c8ebf;" vertex="1" parent="1">
          <mxGeometry x="310" y="-70" width="100" height="450" as="geometry" />
        </mxCell>
        <mxCell id="cHGZgE5Mo0JHlfNWTbsY-7" value="&lt;div&gt;Construction du message&lt;br&gt;&lt;/div&gt;" style="html=1;points=[];perimeter=orthogonalPerimeter;fillColor=#A9C4EB;strokeColor=#9673a6;" vertex="1" parent="cHGZgE5Mo0JHlfNWTbsY-4">
          <mxGeometry x="45" y="80" width="10" height="110" as="geometry" />
        </mxCell>
        <mxCell id="cHGZgE5Mo0JHlfNWTbsY-9" value="DemandeFermetureConv" style="html=1;verticalAlign=bottom;endArrow=block;rounded=0;" edge="1" parent="cHGZgE5Mo0JHlfNWTbsY-4" target="cHGZgE5Mo0JHlfNWTbsY-4">
          <mxGeometry width="80" relative="1" as="geometry">
            <mxPoint x="-110" y="79" as="sourcePoint" />
            <mxPoint x="19.5" y="79" as="targetPoint" />
          </mxGeometry>
        </mxCell>
        <mxCell id="cHGZgE5Mo0JHlfNWTbsY-12" value="DemandeFermetureConv" style="html=1;verticalAlign=bottom;endArrow=block;rounded=0;exitX=0.6;exitY=1.017;exitDx=0;exitDy=0;exitPerimeter=0;" edge="1" parent="cHGZgE5Mo0JHlfNWTbsY-4">
          <mxGeometry width="80" relative="1" as="geometry">
            <mxPoint x="50" y="189.9999999999999" as="sourcePoint" />
            <mxPoint x="218.5" y="189.9999999999999" as="targetPoint" />
          </mxGeometry>
        </mxCell>
        <mxCell id="cHGZgE5Mo0JHlfNWTbsY-23" value="&lt;div&gt;Construction du message&lt;br&gt;&lt;/div&gt;" style="html=1;points=[];perimeter=orthogonalPerimeter;fillColor=#A9C4EB;strokeColor=#9673a6;" vertex="1" parent="cHGZgE5Mo0JHlfNWTbsY-4">
          <mxGeometry x="45" y="340" width="10" height="76" as="geometry" />
        </mxCell>
        <mxCell id="cHGZgE5Mo0JHlfNWTbsY-28" value="tant que ack non reÃ§u " style="text;html=1;align=center;verticalAlign=middle;resizable=0;points=[];autosize=1;strokeColor=none;fillColor=none;" vertex="1" parent="cHGZgE5Mo0JHlfNWTbsY-4">
          <mxGeometry x="-80" y="205" width="140" height="30" as="geometry" />
        </mxCell>
        <mxCell id="cHGZgE5Mo0JHlfNWTbsY-5" value="NetworkManager" style="shape=umlLifeline;perimeter=lifelinePerimeter;whiteSpace=wrap;html=1;container=1;collapsible=0;recursiveResize=0;outlineConnect=0;fillColor=#dae8fc;strokeColor=#6c8ebf;" vertex="1" parent="1">
          <mxGeometry x="480" y="-70" width="100" height="450" as="geometry" />
        </mxCell>
        <mxCell id="cHGZgE5Mo0JHlfNWTbsY-13" value="DemandeFermetureConv" style="html=1;verticalAlign=bottom;endArrow=block;rounded=0;exitX=0.6;exitY=1.017;exitDx=0;exitDy=0;exitPerimeter=0;" edge="1" parent="cHGZgE5Mo0JHlfNWTbsY-5">
          <mxGeometry width="80" relative="1" as="geometry">
            <mxPoint x="51" y="217.68999999999988" as="sourcePoint" />
            <mxPoint x="225.5" y="217.69" as="targetPoint" />
          </mxGeometry>
        </mxCell>
        <mxCell id="cHGZgE5Mo0JHlfNWTbsY-6" value="applicationDistante" style="shape=umlLifeline;perimeter=lifelinePerimeter;whiteSpace=wrap;html=1;container=1;collapsible=0;recursiveResize=0;outlineConnect=0;fillColor=#dae8fc;strokeColor=#6c8ebf;" vertex="1" parent="1">
          <mxGeometry x="649" y="-70" width="110" height="510" as="geometry" />
        </mxCell>
        <mxCell id="cHGZgE5Mo0JHlfNWTbsY-8" value="" style="html=1;verticalAlign=bottom;endArrow=block;rounded=0;startArrow=none;" edge="1" parent="1" source="cHGZgE5Mo0JHlfNWTbsY-19" target="cHGZgE5Mo0JHlfNWTbsY-3">
          <mxGeometry x="NaN" y="140" width="80" relative="1" as="geometry">
            <mxPoint x="70" y="-1" as="sourcePoint" />
            <mxPoint x="150" y="-1" as="targetPoint" />
            <mxPoint x="-79" y="-115" as="offset" />
          </mxGeometry>
        </mxCell>
        <mxCell id="cHGZgE5Mo0JHlfNWTbsY-18" value="ack" style="html=1;verticalAlign=bottom;endArrow=block;rounded=0;" edge="1" parent="1">
          <mxGeometry x="-0.0382" width="80" relative="1" as="geometry">
            <mxPoint x="703.5" y="192" as="sourcePoint" />
            <mxPoint x="529.875" y="192" as="targetPoint" />
            <Array as="points">
              <mxPoint x="630" y="192" />
              <mxPoint x="620" y="192" />
              <mxPoint x="570" y="192" />
            </Array>
            <mxPoint as="offset" />
          </mxGeometry>
        </mxCell>
        <mxCell id="cHGZgE5Mo0JHlfNWTbsY-19" value="" style="html=1;points=[];perimeter=orthogonalPerimeter;fillColor=#A9C4EB;strokeColor=#9673a6;" vertex="1" parent="1">
          <mxGeometry x="195" y="-30" width="10" height="380" as="geometry" />
        </mxCell>
        <mxCell id="cHGZgE5Mo0JHlfNWTbsY-22" value="ack" style="html=1;verticalAlign=bottom;endArrow=block;rounded=0;" edge="1" parent="1">
          <mxGeometry x="-0.0382" width="80" relative="1" as="geometry">
            <mxPoint x="533.63" y="269" as="sourcePoint" />
            <mxPoint x="360.005" y="269" as="targetPoint" />
            <Array as="points">
              <mxPoint x="460.13" y="269" />
              <mxPoint x="450.13" y="269" />
              <mxPoint x="400.13" y="269" />
            </Array>
            <mxPoint as="offset" />
          </mxGeometry>
        </mxCell>
        <mxCell id="cHGZgE5Mo0JHlfNWTbsY-24" value="Destruction Conversation" style="html=1;verticalAlign=bottom;endArrow=block;rounded=0;" edge="1" parent="1">
          <mxGeometry x="-0.0382" width="80" relative="1" as="geometry">
            <mxPoint x="359" y="351" as="sourcePoint" />
            <mxPoint x="209" y="351" as="targetPoint" />
            <Array as="points">
              <mxPoint x="294.13" y="351" />
              <mxPoint x="284.13" y="351" />
              <mxPoint x="234.13" y="351" />
            </Array>
            <mxPoint as="offset" />
          </mxGeometry>
        </mxCell>
        <mxCell id="cHGZgE5Mo0JHlfNWTbsY-25" value="FermerConversation" style="html=1;verticalAlign=bottom;endArrow=block;rounded=0;" edge="1" parent="1">
          <mxGeometry width="80" relative="1" as="geometry">
            <mxPoint x="35.5" y="-10" as="sourcePoint" />
            <mxPoint x="195.00000000000045" y="-10" as="targetPoint" />
          </mxGeometry>
        </mxCell>
        <mxCell id="cHGZgE5Mo0JHlfNWTbsY-29" value="Utilisateur" style="text;html=1;align=center;verticalAlign=middle;resizable=0;points=[];autosize=1;strokeColor=none;fillColor=none;" vertex="1" parent="1">
          <mxGeometry y="-100" width="80" height="30" as="geometry" />
        </mxCell>
      </root>
    </mxGraphModel>
  </diagram>
</mxfile>
